<svg xmlns="http://www.w3.org/2000/svg" width="300" height="150" version="1.1">
<style type="text/css">
.l0{
  fill-opacity:0;
  fill: #ffffff;
  stroke: #ffffff;
  stroke-linecap:round;
  stroke-linejoin:round;
  stroke-width: 0.96;
}
.l3{
  fill: #222222; fill-opacity: 0.5;
  stroke: #222222;
  stroke-linecap:round;
  stroke-linejoin:round;
  stroke-width: 0.96;
}
.l4{
  fill: #229900;
  stroke: #229900;
  stroke-linecap:round;
  stroke-linejoin:round;
  stroke-width: 0.96;
}
.l5{
  fill: #bb2200;
  stroke: #bb2200;
  stroke-linecap:round;
  stroke-linejoin:round;
  stroke-width: 0.96;
}
.l7{
  fill: #ff0000; fill-opacity: 0.5;
  stroke: #ff0000;
  stroke-linecap:round;
  stroke-linejoin:round;
  stroke-width: 0.96;
}
text {font-family: Sans-Serif;}
</style>
<rect class="l0" x="0" y="0" width="300" height="150"/>
<text fill="#ff0000"  xml:space="preserve" font-size="11.7" transform="translate(82.5, 44.3736)" >c0</text>
<text fill="#ff0000"  xml:space="preserve" font-size="11.7" transform="translate(82.5, 113.749)" >c1</text>
<text fill="#222222"  xml:space="preserve" font-size="15.6" transform="translate(105, 46.0398)" >C1</text>
<text fill="#222222"  xml:space="preserve" font-size="15.6" transform="translate(105, 91.0398)" >0.5 / 0.5 * 1</text>
<text fill="#222222"  xml:space="preserve" font-size="15.6" transform="translate(105, 68.5398)" >cap_var_lvt</text>
<text fill="#222222"  xml:space="preserve" font-size="11.7" transform="translate(60, 100.624)" >n+</text>
<text fill="#ff0000"  xml:space="preserve" font-size="11.7" transform="translate(22.5, 98.7486)" >b</text>
<path class="l4" d="M75 78.75L75 120"/>
<path class="l4" d="M75 30L75 67.5"/>
<path class="l4" d="M60 67.5L90 67.5"/>
<path class="l4" d="M52.5 105L75 105"/>
<path class="l4" d="M15 105L37.5 105"/>
<path class="l4" d="M52.5 90L52.5 120"/>
<path class="l4" d="M52.5 105L37.5 90L37.5 120L52.5 105"/>
<path class="l4" style="fill:none;" d="M90 82.5 A31.875 31.875 0 0 0 60 82.5"/>
<path class="l5" d="M71.25 26.25L78.75 26.25L78.75 33.75L71.25 33.75L71.25 26.25z"/>
<path class="l5" d="M71.25 116.25L78.75 116.25L78.75 123.75L71.25 123.75L71.25 116.25z"/>
<path class="l5" d="M11.25 101.25L18.75 101.25L18.75 108.75L11.25 108.75L11.25 101.25z"/>
</svg>
