<svg xmlns="http://www.w3.org/2000/svg" width="300" height="150" version="1.1">
<style type="text/css">
.l0{
  fill-opacity:0;
  fill: #ffffff;
  stroke: #ffffff;
  stroke-linecap:round;
  stroke-linejoin:round;
  stroke-width: 0.96;
}
.l3{
  fill: #222222; fill-opacity: 0.5;
  stroke: #222222;
  stroke-linecap:round;
  stroke-linejoin:round;
  stroke-width: 0.96;
}
.l4{
  fill: #229900;
  stroke: #229900;
  stroke-linecap:round;
  stroke-linejoin:round;
  stroke-width: 0.96;
}
.l5{
  fill: #bb2200;
  stroke: #bb2200;
  stroke-linecap:round;
  stroke-linejoin:round;
  stroke-width: 0.96;
}
.l7{
  fill: #ff0000; fill-opacity: 0.5;
  stroke: #ff0000;
  stroke-linecap:round;
  stroke-linejoin:round;
  stroke-width: 0.96;
}
.l13{
  fill: #666600; fill-opacity: 0.5;
  stroke: #666600;
  stroke-linecap:round;
  stroke-linejoin:round;
  stroke-width: 0.96;
}
text {font-family: Sans-Serif;}
</style>
<rect class="l0" x="0" y="0" width="300" height="150"/>
<text fill="#222222"  xml:space="preserve" font-size="15.6" transform="translate(59.5, 44.1648)" >M1</text>
<text fill="#ff0000"  xml:space="preserve" font-size="11.7" transform="translate(108.75, 111.874)" >S</text>
<text fill="#ff0000"  xml:space="preserve" font-size="11.7" transform="translate(108.75, 45.9537)" >D</text>
<text fill="#ff0000"  xml:space="preserve" font-size="11.7" transform="translate(51, 70.6236)" >G</text>
<text fill="#222222"  xml:space="preserve" font-size="15.6" transform="translate(120, 58.1466)" >nfet_05v0_nvt</text>
<text fill="#666600"  xml:space="preserve" font-size="15.6" transform="translate(121.875, 106.04)" >1 x 1 / 0.15</text>
<path class="l4" d="M105 30L105 48.75"/>
<path class="l4" d="M105 101.25L105 120"/>
<path class="l4" d="M86.25 48.75L105 48.75"/>
<path class="l4" d="M86.25 101.25L97.5 101.25"/>
<path class="l4" d="M45 75L71.25 75"/>
<path class="l4" d="M86.25 41.25L86.25 56.25"/>
<path class="l4" d="M86.25 93.75L86.25 108.75"/>
<path class="l4" d="M86.25 67.5L86.25 82.5"/>
<path class="l4" d="M97.5 97.5L105 101.25L97.5 105L97.5 97.5"/>
<path class="l4" style="fill:none;" d="M71.25 97.5L71.25 52.5L78.75 52.5L78.75 97.5L71.25 97.5"/>
<path class="l5" d="M101.25 26.25L108.75 26.25L108.75 33.75L101.25 33.75L101.25 26.25z"/>
<path class="l5" d="M41.25 71.25L48.75 71.25L48.75 78.75L41.25 78.75L41.25 71.25z"/>
<path class="l5" d="M101.25 116.25L108.75 116.25L108.75 123.75L101.25 123.75L101.25 116.25z"/>
</svg>
